<svg width="24" height="16" viewBox="0 0 24 16" fill="none" xmlns="http://www.w3.org/2000/svg">
<rect opacity="0.15" width="24" height="16" rx="4" fill="white"/>
<path opacity="0.6" d="M16.6664 4C16.4896 4 16.3199 4.0702 16.1949 4.19516C16.0698 4.32012 15.9995 4.4896 15.9995 4.66632V7.33158C15.9995 7.5083 15.9293 7.67777 15.8042 7.80273C15.6792 7.92769 15.5095 7.99789 15.3327 7.99789H8.93734L9.80428 7.13835C9.92985 7.01288 10.0004 6.8427 10.0004 6.66526C10.0004 6.48782 9.92985 6.31765 9.80428 6.19218C9.6787 6.06671 9.50839 5.99622 9.3308 5.99622C9.15321 5.99622 8.98289 6.06671 8.85732 6.19218L6.85669 8.19112C6.79598 8.25449 6.74839 8.32922 6.71665 8.41101C6.64995 8.57323 6.64995 8.75519 6.71665 8.91741C6.74839 8.9992 6.79598 9.07392 6.85669 9.13729L8.85732 11.1362C8.91931 11.1987 8.99307 11.2483 9.07433 11.2821C9.1556 11.3159 9.24276 11.3333 9.3308 11.3333C9.41883 11.3333 9.506 11.3159 9.58726 11.2821C9.66853 11.2483 9.74228 11.1987 9.80428 11.1362C9.86678 11.0743 9.9164 11.0006 9.95025 10.9194C9.98411 10.8382 10.0015 10.7511 10.0015 10.6632C10.0015 10.5752 9.98411 10.4881 9.95025 10.4069C9.9164 10.3257 9.86678 10.252 9.80428 10.1901L8.93734 9.33052H15.3327C15.8633 9.33052 16.3721 9.11992 16.7473 8.74505C17.1225 8.37017 17.3333 7.86173 17.3333 7.33158V4.66632C17.3333 4.4896 17.263 4.32012 17.138 4.19516C17.0129 4.0702 16.8433 4 16.6664 4Z" fill="white"/>
</svg>
