<svg width="31" height="31" viewBox="0 0 31 31" fill="none" xmlns="http://www.w3.org/2000/svg">
<path d="M18.7394 20.8705C18.7394 20.8705 16.3151 23.1477 12.9846 21.9719C12.9846 21.9745 16.4644 25.4784 18.7394 20.8705Z" fill="#3A86FF"/>
<path d="M21.6822 12.3476C22.4451 12.142 23.2481 12.1828 23.989 12.465C24.0853 12.4985 24.1793 12.5386 24.2707 12.5851C24.3637 12.6295 24.4592 12.6699 24.5498 12.7156C24.6404 12.7613 24.7286 12.8226 24.8168 12.8774L24.9502 12.9622L25.0727 13.0575C25.1559 13.1227 25.2416 13.188 25.3249 13.2545C25.4082 13.3211 25.4804 13.4007 25.5588 13.4751C25.7152 13.6255 25.8613 13.7877 25.9959 13.9605C26.5475 14.6696 26.9126 15.5221 27.0538 16.4308C27.0636 16.4869 27.0746 16.5443 27.0832 16.6017L27.0979 16.774L27.1223 17.1198C27.1279 17.2359 27.1279 17.3522 27.1223 17.4682C27.1223 17.5844 27.1223 17.7005 27.1089 17.8167C27.0243 18.7501 26.7188 19.6454 26.2212 20.4188C26.1575 20.514 26.0877 20.6041 26.0216 20.6967C25.9566 20.7884 25.8863 20.8755 25.811 20.9577C25.6654 21.1297 25.5087 21.2906 25.342 21.4392C25.2588 21.5123 25.178 21.5906 25.091 21.6585L24.8217 21.8529C24.7776 21.8842 24.7323 21.9182 24.687 21.9482L24.5449 22.0304L24.2596 22.1922C24.1629 22.2418 24.0613 22.2809 23.9633 22.3227C23.8652 22.3682 23.7646 22.4074 23.6621 22.4401C23.4592 22.5086 23.2522 22.5627 23.0426 22.602C22.2223 22.7635 21.3763 22.6864 20.5937 22.3788C19.854 22.0891 19.2138 21.5678 18.7571 20.8833C19.088 21.0427 19.4313 21.1711 19.7831 21.267C19.9501 21.3125 20.1194 21.3483 20.2901 21.374C20.4564 21.4008 20.624 21.4173 20.7921 21.4236C20.9552 21.4327 21.1187 21.4327 21.2818 21.4236C21.4425 21.4144 21.6025 21.3939 21.7606 21.3622C21.9161 21.3231 22.0716 21.3074 22.221 21.2526L22.4438 21.1848C22.5161 21.1534 22.5883 21.1247 22.6593 21.096C22.9419 20.9808 23.2126 20.8352 23.4674 20.6615C23.9553 20.3099 24.3717 19.8572 24.6919 19.3304L24.7996 19.1308L24.8547 19.0316C24.8719 18.9963 24.8841 18.9611 24.9 18.9259L24.9931 18.7184C25.0237 18.6492 25.0421 18.5735 25.069 18.5018L25.1069 18.3948C25.1216 18.3596 25.1327 18.3228 25.14 18.2851C25.1584 18.2108 25.1755 18.1364 25.1963 18.0633C25.2049 18.0255 25.2171 17.9889 25.2245 17.9511L25.2416 17.8375C25.2539 17.7619 25.2661 17.6862 25.2796 17.6092C25.2931 17.5322 25.2918 17.4552 25.2992 17.3782L25.309 17.2621C25.3147 17.2237 25.3168 17.1848 25.3151 17.1459V16.7949C25.3151 16.757 25.3078 16.7179 25.3041 16.6787L25.2833 16.4452C25.2751 16.3676 25.2633 16.2905 25.2478 16.2142C25.2318 16.1372 25.2245 16.0576 25.2049 15.9819L25.1449 15.7535L25.1167 15.6374L25.0763 15.5252C25.0506 15.4508 25.0237 15.3764 24.9992 15.2994C24.9747 15.2224 24.9355 15.1532 24.9037 15.0789C24.874 15.0041 24.8401 14.9313 24.8021 14.8609C24.72 14.7239 24.6539 14.5712 24.5572 14.4407C24.5107 14.3729 24.469 14.3024 24.42 14.2359C24.3711 14.1693 24.3196 14.1054 24.2694 14.0414L24.1935 13.9422L24.109 13.8522C24.0527 13.7909 23.9964 13.7308 23.9401 13.6669C23.8837 13.603 23.8176 13.5534 23.7564 13.4946C23.6955 13.4354 23.6318 13.3797 23.5654 13.3276C23.4331 13.2181 23.295 13.117 23.1515 13.0249L22.9311 12.8813C22.854 12.8422 22.7769 12.8004 22.6973 12.7586C22.5378 12.6749 22.3743 12.6 22.2075 12.5342C22.1227 12.4976 22.0361 12.4662 21.9479 12.4402C21.861 12.4115 21.7728 12.3802 21.6822 12.3476Z" fill="#FDBC0B"/>
<path d="M9.02812 11.6934C9.02812 11.6934 5.13812 12.2584 4.18797 15.2781C3.25986 18.2273 4.43285 21.2222 7.2172 22.5036C10.2525 23.8986 15.569 22.1122 18.668 16.6235L19.5104 17.6975L20.6491 13.5816L17.2281 15.7231L18.3399 16.3168C18.3399 16.3168 13.2805 22.9251 7.82818 20.7641C7.18346 20.4815 6.63628 19.9937 6.26133 19.3673C5.88639 18.7409 5.70195 18.0065 5.73319 17.2642C5.78095 14.5799 7.76696 13.7082 9.58768 13.3989L9.50687 13.2058" fill="#9635F0"/>
<path d="M19.5769 10.7063C19.5769 10.7063 17.8064 7.22854 13.4829 7.81708C9.15948 8.40562 7.40488 12.3531 10.6423 14.3249C10.6423 14.3249 8.67094 10.3383 13.8368 8.99937C17.0987 8.15506 19.5769 10.7063 19.5769 10.7063Z" fill="#FF006E"/>
</svg>
